<?xml version="1.0" encoding="utf-8"?>
<!-- Generator: Adobe Illustrator 23.1.1, SVG Export Plug-In . SVG Version: 6.00 Build 0)  -->
<svg version="1.1" id="Layer_1" xmlns="http://www.w3.org/2000/svg" xmlns:xlink="http://www.w3.org/1999/xlink" x="0px" y="0px"
	 viewBox="0 0 250 250" style="enable-background:new 0 0 250 250;" xml:space="preserve">
<style type="text/css">
	.st0{fill:#15CDF9;}
	.st1{fill:#FFFFFF;}
</style>
<g>
	<rect x="-31.5" y="-23.1" class="st0" width="301.6" height="294.6"/>
	<path class="st1" d="M268.1-21.1v290.6H-29.5V-21.1H268.1 M272.1-25.1H-33.5v298.6h305.6V-25.1L272.1-25.1z"/>
</g>
<path class="st1" d="M1.2,190.1c3.4,5.3,7.1,9.8,10.3,13.2l0,0c0.2,0.2,0.4,0.4,0.5,0.7c1.3,1.4,3.3,3.4,5.3,5.3l0,0
	c0.2,0.2,0.2,0.2,0.4,0.4c1.1,0.9,1.8,1.4,2.4,2l1.1,0.9c0.5,0.4,0.9,0.7,1.3,0.9l1.3,0.9c9.1,6.7,55.6,42,75.4,59.8
	c2.2,2,3.8,3.6,5.1,5.4c1.1,1.8,1.8,3.4,1.8,6.7c0,4.7-1.6,8.5-4.5,12.1c-8-6-14.3-13.8-17.9-20.8l-0.9-1.8h-58l-32.1,33.5v84.6
	h58.9l0,0l0,0l15.4-15.4c14.5,4.5,29.2,6,44.2,6c27.4,0,51.4-8.7,67.6-17.2c8.7-4.2,16.8-9.4,23.9-15.9
	c17.9-16.7,29.3-40.9,29.3-70.3c0-22.1-7.4-39.7-15.8-52.4c-3.4-5.3-7.1-9.8-10.3-13.2l0,0c-0.2-0.2-0.4-0.4-0.5-0.7
	c-1.3-1.4-3.3-3.4-5.3-5.1l0,0c-0.2-0.2-0.2-0.2-0.4-0.4c-1.1-0.9-1.8-1.4-2.4-2l-1.1-0.9c-0.5-0.4-0.9-0.7-1.3-0.9l-1.3-0.9
	c-9.1-6.7-55.6-42-75.4-59.8c-2.2-2-3.8-3.6-5.1-5.4c-1.1-1.8-1.8-3.4-1.8-6.7c0-4.7,1.6-8.5,4.5-12.1c8,6,14.3,13.8,17.9,20.8
	l0.9,1.8h58.1l32.1-33.5V24.9h-58.9l0,0l0,0l-15.4,15.4c-14.5-4.5-29.2-6-44.2-6C79.1,34.3,55,43,38.9,51.6
	C30.2,55.7,22.1,61,15,67.5c-17.9,16.7-29.3,40.9-29.3,70.3C-14.5,159.9-7.1,177.5,1.2,190.1z"/>
<g>
	<polygon class="st1" points="-13.6,319.8 -4.8,310.9 -4.8,366.4 -13.6,375.3 	"/>
	<polygon class="st0" points="0.2,298.8 -18.6,317.8 -18.6,387.4 0.2,368.5 0.2,298.8 	"/>
</g>
<g>
	<polygon class="st0" points="44.9,375.3 6.6,375.3 -10.3,392 28.2,392 44.9,375.3 	"/>
</g>
<g>
	<path class="st0" d="M64.5,368.8l-1.1,1.1l-7.4,7.4c10.3,3.4,24.2,4.9,36.9,4.9c4.3,0,8.6-0.2,12.4-0.5
		C89.4,380.2,72,374.2,64.5,368.8L64.5,368.8z"/>
</g>
<g>
	<path class="st0" d="M174.9,204.1L174.9,204.1c1.8,1.3,7.6,5.4,7.8,5.6c3.3,2.4,5.4,4.2,6.9,5.3l0,0c3.6,2.9,10.9,9.6,17.2,19.4
		c7.4,11.2,13.9,26.8,13.9,46.4c0,26.6-10,47.6-25.7,62.3s-37.5,22.8-61,22.8c-19.7,0-39.3-8.3-51.6-18.7l-8.9-7.4v18.7H29.1v-73.2
		h46.7c4.5,7.6,11.2,15.4,19.7,21.7c9.6,7.1,21.9,12.1,36,12.1c2,0,3.8-0.2,5.8-0.4c7.4-0.7,15.9-3.4,22.8-9.8s11.6-16.1,11.6-29.2
		c0-12-4-24.5-15-36l0,0c-9.6-10.1-22.3-20.7-32.2-28.8l0,0l-7.2-5.8l0,0l-7.2-5.8l0,0c-10.1-8.3-29-23-41.5-36.4
		c-9.4-10.1-12-19-12.1-28.6c0-10.5,3.4-16.8,8.2-21.2c4.5-4.3,10.9-6.5,16.5-7.1c1.6-0.2,3.3-0.2,4.7-0.2c7.6,0,14.5,1.8,20.5,4.5
		c-3.6,4.9-6,10.9-6,17.8c0,5.3,1.6,9.6,3.8,12.9c2.2,3.3,4.7,5.3,6.3,7.1l0,0l0.2,0.2C126.2,166.6,157.2,190.5,174.9,204.1z"/>
</g>
<g>
	<polygon class="st1" points="207.4,34 169.5,34 153,50.5 190.7,50.5 207.4,34 	"/>
</g>
<g>
	<path class="st0" d="M22.2,75.5c15.8-14.7,37.5-22.8,61-22.8c19.7,0,39.3,8.3,51.6,18.7l8.9,7.4V60.1h44.4v73.2h-46.7
		c-4.5-7.6-11.2-15.4-19.7-21.7c-9.6-7.1-21.9-12.1-36-12.1c-2,0-3.8,0.2-5.8,0.4c-7.4,0.7-15.9,3.4-22.8,9.8
		c-6.9,6.3-11.6,16.1-11.6,29.2c0,12,4,24.5,15,36l0,0c9.6,10.1,22.3,20.7,32.2,28.8l0,0l7.2,5.8l0,0l7.2,5.8l0,0
		c10.1,8.3,29,23,41.5,36.4c9.4,10.1,12,19,12.1,28.6c0,10.5-3.4,16.8-8.2,21.2c-4.5,4.3-10.9,6.5-16.5,7.1
		c-1.6,0.2-3.3,0.2-4.7,0.2c-7.6,0-14.5-1.8-20.5-4.5c3.6-4.9,6-10.9,6-17.8c0-5.3-1.6-9.6-3.8-12.9c-2.2-3.3-4.7-5.3-6.3-7.1l0,0
		l-0.2-0.2c-15.6-14.1-46.6-38-64.3-51.4l0,0c-1.8-1.3-7.6-5.4-7.8-5.6c-3.3-2.4-5.4-4.2-6.9-5.3l0,0c-3.6-2.9-10.9-9.6-17.2-19.4
		C3,173.3-3.5,157.7-3.5,138.1C-3.7,111.3,6.5,90.1,22.2,75.5z"/>
</g>
</svg>
