<svg xmlns="http://www.w3.org/2000/svg" version="1.1" baseProfile="tiny" x="0" y="0" width="321.5" height="321.5" viewBox="0 0 321.5 321.5" xml:space="preserve"><path d="M0 160.8C0 72 72 0 160.8 0l0 0c88.8 0 160.7 72 160.8 160.8l0 0c0 88.8-72 160.7-160.7 160.8l0 0C72 321.5 0 249.5 0 160.8L0 160.8zM6 160.8c0 42.7 17.3 81.4 45.3 109.4l0 0c28 28 66.7 45.3 109.4 45.3l0 0c42.7 0 81.4-17.3 109.4-45.3l0 0c28-28 45.3-66.7 45.3-109.4l0 0c0-42.7-17.3-81.4-45.3-109.4l0 0C242.2 23.3 203.5 6 160.8 6l0 0C118 6 79.3 23.3 51.3 51.3l0 0C23.3 79.3 6 118 6 160.8L6 160.8 6 160.8zM17 160.8c0-79.4 64.4-143.8 143.8-143.8l0 0c79.4 0 143.8 64.4 143.8 143.8l0 0c0 79.4-64.4 143.8-143.8 143.8l0 0C81.3 304.6 17 240.2 17 160.8L17 160.8zM23 160.8c0 38.1 15.4 72.5 40.4 97.4l0 0c24.9 24.9 59.4 40.4 97.4 40.4l0 0c38.1 0 72.5-15.4 97.4-40.4l0 0c24.9-24.9 40.4-59.4 40.4-97.4l0 0c0-38.1-15.4-72.5-40.4-97.4l0 0c-24.9-24.9-59.4-40.4-97.4-40.4l0 0c-38.1 0-72.5 15.4-97.4 40.4l0 0C38.4 88.3 23 122.7 23 160.8L23 160.8 23 160.8z"></path><path d="M101.5 150.2c1.9 2.9 3.9 5.4 5.7 7.3h0c0.1 0.1 0.2 0.2 0.3 0.4 0.7 0.8 1.8 1.9 2.9 2.9l0 0c0.1 0.1 0.1 0.1 0.2 0.2 0.6 0.5 1 0.8 1.3 1.1l0.6 0.5c0.3 0.2 0.5 0.4 0.7 0.5l0.7 0.5c5 3.7 30.7 23.2 41.6 33 1.2 1.1 2.1 2 2.8 3 0.6 1 1 1.9 1 3.7 0 2.6-0.9 4.7-2.5 6.7 -4.4-3.3-7.9-7.6-9.9-11.5l-0.5-1H114.4l-17.7 18.5v46.7l32.5 0 0 0 0 0 8.5-8.5c8 2.5 16.1 3.3 24.4 3.3 15.1 0 28.4-4.8 37.3-9.5 4.8-2.3 9.3-5.2 13.2-8.8 9.9-9.2 16.2-22.6 16.2-38.8 0-12.2-4.1-21.9-8.7-28.9 -1.9-2.9-3.9-5.4-5.7-7.3h0c-0.1-0.1-0.2-0.2-0.3-0.4 -0.7-0.8-1.8-1.9-2.9-2.8l0 0c-0.1-0.1-0.1-0.1-0.2-0.2 -0.6-0.5-1-0.8-1.3-1.1l-0.6-0.5c-0.3-0.2-0.5-0.4-0.7-0.5l-0.7-0.5c-5-3.7-30.7-23.2-41.6-33 -1.2-1.1-2.1-2-2.8-3 -0.6-1-1-1.9-1-3.7 0-2.6 0.9-4.7 2.5-6.7 4.4 3.3 7.9 7.6 9.9 11.5l0.5 1h32.1l17.7-18.5V59l-32.5 0 0 0 0 0 -8.5 8.5c-8-2.5-16.1-3.3-24.4-3.3 -15.1 0-28.4 4.8-37.3 9.5 -4.8 2.3-9.3 5.2-13.2 8.8 -9.9 9.2-16.2 22.6-16.2 38.8C92.8 133.5 96.9 143.2 101.5 150.2zM101.7 217.2l10.2-10.3v37.8l-10.2 10.3V217.2zM127.1 257.5H106.2l9.2-9.1h20.8L127.1 257.5zM142.2 249.5l4-4 0.6-0.6c4.1 2.9 13.5 6.2 22.2 7C160.7 252.6 149.7 252 142.2 249.5zM197.4 157.9h0c1 0.7 4.2 3 4.3 3.1 1.8 1.3 3 2.3 3.8 2.9h0c2 1.6 6 5.3 9.5 10.7 4.1 6.2 7.7 14.8 7.7 25.6 0 14.7-5.5 26.3-14.2 34.4 -8.7 8.1-20.7 12.6-33.7 12.6 -10.9 0-21.7-4.6-28.5-10.3l-4.9-4.1v10.3h-24.5V202.7l25.8 0c2.5 4.2 6.2 8.5 10.9 12 5.3 3.9 12.1 6.7 19.9 6.7 1.1 0 2.1-0.1 3.2-0.2 4.1-0.4 8.8-1.9 12.6-5.4 3.8-3.5 6.4-8.9 6.4-16.1 0-6.6-2.2-13.5-8.3-19.9v0c-5.3-5.6-12.3-11.4-17.8-15.9h0l-4-3.2h0l-4-3.2 0 0c-5.6-4.6-16-12.7-22.9-20.1 -5.2-5.6-6.6-10.5-6.7-15.8 0-5.8 1.9-9.3 4.5-11.7 2.5-2.4 6-3.6 9.1-3.9 0.9-0.1 1.8-0.1 2.6-0.1 4.2 0 8 1 11.3 2.5 -2 2.7-3.3 6-3.3 9.8 0 2.9 0.9 5.3 2.1 7.1 1.2 1.8 2.6 2.9 3.5 3.9l0 0 0.1 0.1C170.5 137.2 187.6 150.4 197.4 157.9zM219.8 104.3l-10.2 10.3V76.8l10.2-10.3V104.3zM194.4 64h20.9l-9.2 9.1h-20.8L194.4 64zM179.3 72l-4 4 -0.6 0.6c-4.1-2.9-13.5-6.2-22.2-7C160.8 68.9 171.8 69.5 179.3 72zM113.1 86.9c8.7-8.1 20.7-12.6 33.7-12.6 10.9 0 21.7 4.6 28.5 10.3l4.9 4.1V78.4h24.5v40.4l-25.8 0c-2.5-4.2-6.2-8.5-10.9-12 -5.3-3.9-12.1-6.7-19.9-6.7 -1.1 0-2.1 0.1-3.2 0.2 -4.1 0.4-8.8 1.9-12.6 5.4 -3.8 3.5-6.4 8.9-6.4 16.1 0 6.6 2.2 13.5 8.3 19.9v0c5.3 5.6 12.3 11.4 17.8 15.9h0l4 3.2h0l4 3.2 0 0c5.6 4.6 16 12.7 22.9 20.1 5.2 5.6 6.6 10.5 6.7 15.8 0 5.8-1.9 9.3-4.5 11.7 -2.5 2.4-6 3.6-9.1 3.9 -0.9 0.1-1.8 0.1-2.6 0.1 -4.2 0-8-1-11.3-2.5 2-2.7 3.3-6 3.3-9.8 0-2.9-0.9-5.3-2.1-7.1 -1.2-1.8-2.6-2.9-3.5-3.9l0 0 -0.1-0.1c-8.6-7.8-25.7-21-35.5-28.4h0c-1-0.7-4.2-3-4.3-3.1 -1.8-1.3-3-2.3-3.8-2.9h0c-2-1.6-6-5.3-9.5-10.7 -4.1-6.2-7.7-14.8-7.7-25.6C98.8 106.7 104.4 95 113.1 86.9z"></path></svg>